<svg viewBox="0 0 612 792" xmlns="http://www.w3.org/2000/svg"><g><path d="M 0.00 0.00 L 612.00 0.00 L 612.00 792.00 L 0.00 792.00 L 0.00 0.00" fill="#000000" fill-opacity="1.00" /><path d="M 0.00 0.00 L 612.00 0.00 L 612.00 792.00 L 0.00 792.00 L 0.00 0.00" fill="#ffffff" fill-opacity="1.00" /><path d="M 56.80 56.80 L 56.80 76.10 L 223.00 76.10 L 223.00 56.80 L 56.80 56.80" fill="#000080" fill-opacity="1.00" /><path d="M 223.00 56.80 L 223.00 76.10 L 389.20 76.10 L 389.20 56.80 L 223.00 56.80" fill="#000080" fill-opacity="1.00" /><path d="M 389.20 56.80 L 389.20 76.10 L 555.35 76.10 L 555.35 56.80 L 389.20 56.80" fill="#000080" fill-opacity="1.00" /><path d="M 56.80 76.10 L 56.80 95.40 L 223.00 95.40 L 223.00 76.10 L 56.80 76.10" fill="#4d4d4d" fill-opacity="1.00" /><path d="M 223.00 76.10 L 223.00 95.40 L 389.20 95.40 L 389.20 76.10 L 223.00 76.10" fill="#ffffff" fill-opacity="1.00" /><path d="M 389.20 76.10 L 389.20 95.40 L 555.35 95.40 L 555.35 76.10 L 389.20 76.10" fill="#cccccc" fill-opacity="1.00" /><path d="M 56.80 95.40 L 56.80 252.85 L 223.00 252.85 L 223.00 95.40 L 56.80 95.40" fill="#4d4d4d" fill-opacity="1.00" /><path d="M 223.00 95.40 L 223.00 252.85 L 389.20 252.85 L 389.20 95.40 L 223.00 95.40" fill="#cccccc" fill-opacity="1.00" /><path d="M 389.20 95.40 L 389.20 252.85 L 555.35 252.85 L 555.35 95.40 L 389.20 95.40" fill="#cccccc" fill-opacity="1.00" /><path d="M 56.55 56.80 L 56.55 57.15 L 223.45 57.15 L 223.45 56.80 L 56.55 56.80" fill="#000000" fill-opacity="1.00" /><path d="M 56.75 56.75 L 223.05 56.75" /><path d="M 222.75 56.80 L 222.75 57.15 L 389.65 57.15 L 389.65 56.80 L 222.75 56.80" fill="#000000" fill-opacity="1.00" /><path d="M 222.95 56.75 L 389.25 56.75" /><path d="M 388.95 56.80 L 388.95 57.15 L 555.85 57.15 L 555.85 56.80 L 388.95 56.80" fill="#000000" fill-opacity="1.00" /><path d="M 389.15 56.75 L 555.45 56.75" /><path d="M 56.75 76.05 L 223.05 76.05 M 222.95 76.05 L 389.25 76.05 M 389.15 76.05 L 555.45 76.05 M 56.75 95.35 L 223.05 95.35 M 222.95 95.35 L 389.25 95.35 M 389.15 95.35 L 555.45 95.35" /><path d="M 56.55 252.50 L 56.55 253.00 L 223.45 253.00 L 223.45 252.50 L 56.55 252.50" fill="#000000" fill-opacity="1.00" /><path d="M 56.75 252.70 L 223.05 252.70" /><path d="M 222.75 252.50 L 222.75 253.00 L 389.65 253.00 L 389.65 252.50 L 222.75 252.50" fill="#000000" fill-opacity="1.00" /><path d="M 222.95 252.70 L 389.25 252.70" /><path d="M 388.95 252.50 L 388.95 253.00 L 555.85 253.00 L 555.85 252.50 L 388.95 252.50" fill="#000000" fill-opacity="1.00" /><path d="M 389.15 252.70 L 555.45 252.70" /><path d="M 56.55 56.80 L 56.55 76.60 L 57.15 76.60 L 57.15 56.80 L 56.55 56.80" fill="#000000" fill-opacity="1.00" /><path d="M 56.75 56.75 L 56.75 76.15" /><path d="M 56.75 76.05 L 56.75 95.50" /><path d="M 56.55 95.20 L 56.55 253.00 L 57.15 253.00 L 57.15 95.20 L 56.55 95.20" fill="#000000" fill-opacity="1.00" /><path d="M 56.75 95.35 L 56.75 252.80" /><path d="M 222.75 56.80 L 222.75 76.60 L 223.35 76.60 L 223.35 56.80 L 222.75 56.80" fill="#000000" fill-opacity="1.00" /><path d="M 222.95 56.75 L 222.95 76.15" /><path d="M 222.95 76.05 L 222.95 95.50" /><path d="M 222.75 95.20 L 222.75 253.00 L 223.35 253.00 L 223.35 95.20 L 222.75 95.20" fill="#000000" fill-opacity="1.00" /><path d="M 222.95 95.35 L 222.95 252.70" /><path d="M 388.95 56.80 L 388.95 76.60 L 389.55 76.60 L 389.55 56.80 L 388.95 56.80" fill="#000000" fill-opacity="1.00" /><path d="M 389.15 56.75 L 389.15 76.15" /><path d="M 389.15 76.05 L 389.15 95.50" /><path d="M 388.95 95.20 L 388.95 253.00 L 389.55 253.00 L 389.55 95.20 L 388.95 95.20" fill="#000000" fill-opacity="1.00" /><path d="M 389.15 95.35 L 389.15 252.70" /><path d="M 555.10 56.80 L 555.10 76.60 L 555.75 76.60 L 555.75 56.80 L 555.10 56.80" fill="#000000" fill-opacity="1.00" /><path d="M 555.35 56.75 L 555.35 76.15" /><path d="M 555.35 76.05 L 555.35 95.50" /><path d="M 555.10 95.20 L 555.10 253.00 L 555.75 253.00 L 555.75 95.20 L 555.10 95.20" fill="#000000" fill-opacity="1.00" /><path d="M 555.35 95.35 L 555.35 252.80" /><g transform="matrix(1.09 0.00 0.00 1.09 59.50 70.65)"><text fill="#ffffff" fill-opacity="1.00" font-family="arial" font-size="11" y="0.0"><tspan x="0.0">T</tspan><tspan x="6.05">e</tspan><tspan x="10.8">s</tspan><tspan x="15.2">t</tspan><tspan x="217.35">T</tspan><tspan x="223.3">e</tspan><tspan x="228.0">s</tspan><tspan x="232.45">t</tspan><tspan x="434.8">T</tspan><tspan x="440.75">e</tspan><tspan x="445.6">s</tspan><tspan x="449.85">t</tspan></text><text fill="#ffffff" fill-opacity="1.00" font-family="arial" font-size="11" y="17.7"><tspan x="116.7">&#948;</tspan><tspan x="121.9">&#959;</tspan><tspan x="127.4">&#954;</tspan><tspan x="132.9">&#953;</tspan><tspan x="135.9">&#181;</tspan><tspan x="141.85">&#942;</tspan></text><text fill="#000000" fill-opacity="1.00" font-family="arial" font-size="11" y="17.7"><tspan x="211.05">&#948;</tspan><tspan x="216.2">&#959;</tspan><tspan x="221.75">&#954;</tspan><tspan x="227.25">&#953;</tspan><tspan x="230.2">&#181;</tspan><tspan x="236.15">&#942;</tspan><tspan x="305.25">&#948;</tspan><tspan x="310.55">&#959;</tspan><tspan x="316.05">&#954;</tspan><tspan x="321.6">&#953;</tspan><tspan x="324.55">&#181;</tspan><tspan x="330.4">&#942;</tspan></text><text fill="#ffffff" fill-opacity="1.00" font-family="arial" font-size="11" y="35.55"><tspan x="0.0">L</tspan><tspan x="6.6">o</tspan><tspan x="12.25">r</tspan><tspan x="15.95">e</tspan><tspan x="20.7">m</tspan><tspan x="29.4"> </tspan><tspan x="32.15">i</tspan><tspan x="35.25">p</tspan><tspan x="40.75">s</tspan><tspan x="45.05">u</tspan><tspan x="50.45">m</tspan><tspan x="59.2"> </tspan><tspan x="61.95">d</tspan><tspan x="67.45">o</tspan><tspan x="72.85">l</tspan><tspan x="75.95">o</tspan><tspan x="81.45">r</tspan><tspan x="85.2"> </tspan><tspan x="87.95">s</tspan><tspan x="92.15">i</tspan><tspan x="95.2">t</tspan><tspan x="98.3"> </tspan><tspan x="101.05">a</tspan><tspan x="105.9">m</tspan><tspan x="114.6">e</tspan><tspan x="119.35">t</tspan><tspan x="122.45">,</tspan></text><text fill="#ffffff" fill-opacity="1.00" font-family="arial" font-size="11" y="48.2"><tspan x="0.0">c</tspan><tspan x="4.95">o</tspan><tspan x="10.45">n</tspan><tspan x="15.95">s</tspan><tspan x="20.15">e</tspan><tspan x="25.1">c</tspan><tspan x="29.95">t</tspan><tspan x="33.05">e</tspan><tspan x="37.9">t</tspan><tspan x="41.0">u</tspan><tspan x="46.5">r</tspan><tspan x="50.25"> </tspan><tspan x="53.0">a</tspan><tspan x="57.85">d</tspan><tspan x="63.35">i</tspan><tspan x="66.45">p</tspan><tspan x="71.95">i</tspan><tspan x="75.05">s</tspan><tspan x="79.35">c</tspan><tspan x="84.2">i</tspan><tspan x="87.3">n</tspan><tspan x="92.8">g</tspan><tspan x="98.3"> </tspan><tspan x="101.05">e</tspan><tspan x="105.8">l</tspan><tspan x="108.9">i</tspan><tspan x="112.1">t</tspan><tspan x="115.15">.</tspan><tspan x="117.9"> </tspan><tspan x="120.65">P</tspan><tspan x="126.75">r</tspan><tspan x="130.35">o</tspan><tspan x="135.9">i</tspan><tspan x="138.95">n</tspan></text><text fill="#ffffff" fill-opacity="1.00" font-family="arial" font-size="11" y="60.85"><tspan x="0.0">m</tspan><tspan x="8.6">a</tspan><tspan x="13.55">g</tspan><tspan x="18.95">n</tspan><tspan x="24.55">a</tspan><tspan x="29.4"> </tspan><tspan x="32.15">n</tspan><tspan x="37.7">u</tspan><tspan x="43.2">n</tspan><tspan x="48.7">c</tspan><tspan x="53.55">,</tspan><tspan x="56.3"> </tspan><tspan x="59.05">l</tspan><tspan x="62.15">u</tspan><tspan x="67.65">c</tspan><tspan x="72.5">t</tspan><tspan x="75.6">u</tspan><tspan x="81.1">s</tspan><tspan x="85.4"> </tspan><tspan x="88.15">s</tspan><tspan x="92.45">i</tspan><tspan x="95.55">t</tspan><tspan x="98.65"> </tspan><tspan x="101.4">a</tspan><tspan x="106.25">m</tspan><tspan x="114.85">e</tspan><tspan x="119.7">t</tspan></text><text fill="#ffffff" fill-opacity="1.00" font-family="arial" font-size="11" y="73.5"><tspan x="0.0">s</tspan><tspan x="4.3">u</tspan><tspan x="9.8">s</tspan><tspan x="14.1">c</tspan><tspan x="18.95">i</tspan><tspan x="22.05">p</tspan><tspan x="27.55">i</tspan><tspan x="30.65">t</tspan><tspan x="33.7"> </tspan><tspan x="36.45">i</tspan><tspan x="39.55">n</tspan><tspan x="45.05">,</tspan><tspan x="47.8"> </tspan><tspan x="50.6">b</tspan><tspan x="56.1">i</tspan><tspan x="59.2">b</tspan><tspan x="64.7">e</tspan><tspan x="69.45">n</tspan><tspan x="74.95">d</tspan><tspan x="80.45">u</tspan><tspan x="85.95">m</tspan><tspan x="94.65"> </tspan><tspan x="97.4">e</tspan><tspan x="102.25">u</tspan><tspan x="107.8"> </tspan><tspan x="110.55">s</tspan><tspan x="114.85">e</tspan><tspan x="119.7">m</tspan><tspan x="128.3">.</tspan></text><text fill="#ffffff" fill-opacity="1.00" font-family="arial" font-size="11" y="86.15"><tspan x="0.0">S</tspan><tspan x="6.15">u</tspan><tspan x="11.7">s</tspan><tspan x="15.95">p</tspan><tspan x="21.5">e</tspan><tspan x="26.35">n</tspan><tspan x="31.85">d</tspan><tspan x="37.35">i</tspan><tspan x="40.45">s</tspan><tspan x="44.75">s</tspan><tspan x="49.05">e</tspan><tspan x="53.9"> </tspan><tspan x="56.65">v</tspan><tspan x="62.25">e</tspan><tspan x="67.0">l</tspan><tspan x="70.1"> </tspan><tspan x="72.85">o</tspan><tspan x="78.35">r</tspan><tspan x="82.1">c</tspan><tspan x="86.95">i</tspan><tspan x="90.05"> </tspan><tspan x="92.8">q</tspan><tspan x="98.3">u</tspan><tspan x="103.8">i</tspan><tspan x="106.9">s</tspan><tspan x="111.2"> </tspan><tspan x="113.95">l</tspan><tspan x="116.95">o</tspan><tspan x="122.45">r</tspan><tspan x="126.2">e</tspan><tspan x="131.05">m</tspan></text><text fill="#ffffff" fill-opacity="1.00" font-family="arial" font-size="11" y="98.8"><tspan x="0.0">s</tspan><tspan x="4.4">a</tspan><tspan x="9.25">g</tspan><tspan x="14.65">i</tspan><tspan x="17.75">t</tspan><tspan x="20.8">t</tspan><tspan x="23.9">i</tspan><tspan x="27.0">s</tspan><tspan x="31.3"> </tspan><tspan x="34.05">g</tspan><tspan x="39.45">r</tspan><tspan x="43.2">a</tspan><tspan x="48.05">v</tspan><tspan x="53.55">i</tspan><tspan x="56.65">d</tspan><tspan x="62.15">a</tspan><tspan x="67.1"> </tspan><tspan x="69.85">v</tspan><tspan x="75.25">i</tspan><tspan x="78.35">t</tspan><tspan x="81.45">a</tspan><tspan x="86.3">e</tspan><tspan x="91.25"> </tspan><tspan x="94.0">i</tspan><tspan x="97.1">d</tspan><tspan x="102.6"> </tspan><tspan x="105.35">m</tspan><tspan x="113.95">a</tspan><tspan x="118.8">u</tspan><tspan x="124.3">r</tspan><tspan x="127.95">i</tspan><tspan x="131.05">s</tspan><tspan x="135.35">.</tspan></text><text fill="#ffffff" fill-opacity="1.00" font-family="arial" font-size="11" y="111.45"><tspan x="0.0">V</tspan><tspan x="6.7">e</tspan><tspan x="11.55">s</tspan><tspan x="15.95">t</tspan><tspan x="19.05">i</tspan><tspan x="22.05">b</tspan><tspan x="27.55">u</tspan><tspan x="33.05">l</tspan><tspan x="36.15">u</tspan><tspan x="41.65">m</tspan><tspan x="50.25"> </tspan><tspan x="53.0">p</tspan><tspan x="58.5">h</tspan><tspan x="64.05">a</tspan><tspan x="68.9">r</tspan><tspan x="72.5">e</tspan><tspan x="77.45">t</tspan><tspan x="80.55">r</tspan><tspan x="84.2">a</tspan><tspan x="89.05"> </tspan><tspan x="91.8">r</tspan><tspan x="95.45">h</tspan><tspan x="100.95">o</tspan><tspan x="106.45">n</tspan><tspan x="112.1">c</tspan><tspan x="116.95">u</tspan><tspan x="122.45">s</tspan></text><text fill="#ffffff" fill-opacity="1.00" font-family="arial" font-size="11" y="124.1"><tspan x="0.0">e</tspan><tspan x="4.95">r</tspan><tspan x="8.6">a</tspan><tspan x="13.45">t</tspan><tspan x="16.5">,</tspan><tspan x="19.3"> </tspan><tspan x="22.05">n</tspan><tspan x="27.55">e</tspan><tspan x="32.5">c</tspan><tspan x="37.35"> </tspan><tspan x="40.1">h</tspan><tspan x="45.6">e</tspan><tspan x="50.45">n</tspan><tspan x="56.0">d</tspan><tspan x="61.5">r</tspan><tspan x="65.25">e</tspan><tspan x="70.1">r</tspan><tspan x="73.7">i</tspan><tspan x="76.8">t</tspan><tspan x="79.9"> </tspan><tspan x="82.65">m</tspan><tspan x="91.25">a</tspan><tspan x="96.2">g</tspan><tspan x="101.6">n</tspan><tspan x="107.1">a</tspan></text><text fill="#ffffff" fill-opacity="1.00" font-family="arial" font-size="11" y="136.75"><tspan x="0.0">h</tspan><tspan x="5.5">e</tspan><tspan x="10.45">n</tspan><tspan x="15.95">d</tspan><tspan x="21.5">r</tspan><tspan x="25.1">e</tspan><tspan x="29.95">r</tspan><tspan x="33.6">i</tspan><tspan x="36.7">t</tspan><tspan x="39.8"> </tspan><tspan x="42.55">i</tspan><tspan x="45.6">d</tspan><tspan x="51.15">.</tspan><tspan x="53.9"> </tspan><tspan x="56.65">F</tspan><tspan x="62.8">u</tspan><tspan x="68.3">s</tspan><tspan x="72.6">c</tspan><tspan x="77.45">e</tspan><tspan x="82.45"> </tspan><tspan x="85.2">m</tspan><tspan x="93.65">a</tspan><tspan x="98.65">l</tspan><tspan x="101.7">e</tspan><tspan x="106.55">s</tspan><tspan x="110.75">u</tspan><tspan x="116.25">a</tspan><tspan x="121.25">d</tspan><tspan x="126.75">a</tspan></text><text fill="#ffffff" fill-opacity="1.00" font-family="arial" font-size="11" y="149.4"><tspan x="0.0">f</tspan><tspan x="3.75">a</tspan><tspan x="8.6">u</tspan><tspan x="14.1">c</tspan><tspan x="18.95">i</tspan><tspan x="22.05">b</tspan><tspan x="27.55">u</tspan><tspan x="33.05">s</tspan><tspan x="37.35"> </tspan><tspan x="40.1">s</tspan><tspan x="44.4">a</tspan><tspan x="49.25">p</tspan><tspan x="54.75">i</tspan><tspan x="57.85">e</tspan><tspan x="62.7">n</tspan><tspan x="68.2">,</tspan><tspan x="71.1"> </tspan><tspan x="73.85">v</tspan><tspan x="79.35">e</tspan><tspan x="84.2">l</tspan><tspan x="87.3"> </tspan><tspan x="90.05">a</tspan><tspan x="94.9">u</tspan><tspan x="100.4">c</tspan><tspan x="105.25">t</tspan><tspan x="108.35">o</tspan><tspan x="113.85">r</tspan><tspan x="117.6"> </tspan><tspan x="120.35">m</tspan><tspan x="128.95">a</tspan><tspan x="133.7">s</tspan><tspan x="138.1">s</tspan><tspan x="142.4">a</tspan></text><text fill="#ffffff" fill-opacity="1.00" font-family="arial" font-size="11" y="162.05"><tspan x="0.0">t</tspan><tspan x="3.1">e</tspan><tspan x="8.05">m</tspan><tspan x="16.5">p</tspan><tspan x="22.05">u</tspan><tspan x="27.55">s</tspan><tspan x="31.85"> </tspan><tspan x="34.6">e</tspan><tspan x="39.45">t</tspan><tspan x="42.55">.</tspan><tspan x="45.3"> </tspan><tspan x="48.05">M</tspan><tspan x="57.85">a</tspan><tspan x="62.8">e</tspan><tspan x="67.65">c</tspan><tspan x="72.5">e</tspan><tspan x="77.45">n</tspan><tspan x="83.0">a</tspan><tspan x="87.85">s</tspan><tspan x="92.15"> </tspan><tspan x="94.9">i</tspan><tspan x="97.95">n</tspan><tspan x="103.5"> </tspan><tspan x="106.25">l</tspan><tspan x="109.3">i</tspan><tspan x="112.4">g</tspan><tspan x="117.8">u</tspan><tspan x="123.3">l</tspan><tspan x="126.4">a</tspan><tspan x="131.25">.</tspan></text></g></g></svg>